{"title":"Videography - U2 - DVDQ [.vob] - Part 12","uid":6648083,"size":1172083608,"categoryP":"video","categoryS":"music_videos","magnet":"?xt=urn:btih:9fc26e6f9e521498ec81556441979961dce592e2&amp;dn=Videography+-+U2+-+DVDQ+%5B.vob%5D+-+Part+12&amp;tr=udp%3A%2F%2Ftracker.openbittorrent.com%3A80&amp;tr=udp%3A%2F%2Fopen.demonii.com%3A1337&amp;tr=udp%3A%2F%2Ftracker.coppersurfer.tk%3A6969&amp;tr=udp%3A%2F%2Fexodus.desync.com%3A6969","seeders":0,"leechers":0,"uploader":"dehou","files":-1,"time":1315025225,"description":"Part 12\n\nU2 - U218 Videos - Vertigo [HQ Version] [2004].vob\nU2 - U218 Videos - Vertigo [Lisbon Version] [2004].vob\nU2 - City Of Blinding Lights [Live In Vancouver] [2005].vob\nU2 - U218 Videos - Sometimes You Can't Make It On Your Own [2005].vob\nU2 - Window In The Skies [2006].vob\nU2 And Green Day - U218 Videos - The Saints Are Coming [2006].vob\n\n\nSo far\n\nU2 - I Will Follow [Old Grey Whistle Test] [1981].vob\nU2 - The Unforgettable Fire Collection DVD - 11 O'Clock Tick Tock [Bootleg Version] [1983].vob\nU2 - The Unforgettable Fire Collection DVD - A Sort Of Homecoming [1984].vob\nU2 - U218 Videos - New Year's Day [1983].vob\nU2 - U218 Videos - Sunday Bloody Sunday [Live At Red Rocks] [1983].vob\nU2 - The Unforgettable Fire Collection DVD - Bad [1984].vob\nU2 - The Unforgettable Fire Collection DVD - Pride (In The Name Of Love) [1984].vob\nU2 - The Unforgettable Fire Collection DVD - The Unforgettable Fire [1985].vob\nU2 - The Unforgettable Fire Collection DVD - Pride (In The Name Of Love) [Sepia Version] [1984].vob\nU2 - U218 Videos - Pride (In The Name Of Love) [Slane Castle Version] [1984].vob\nU2 - U218 Videos - Where The Streets Have No Name [1987].vob\nU2 - Christmas (Baby Please Come Home) [1987].vob\nU2 - U218 Videos - I Still Haven't Found What I'm Looking For [1987].vob\nU2 - U218 Videos - With Or Without You [1987].vob\nU2 - U218 Videos - Desire [1988].vob\nU2 - U218 Videos - Mysterious Ways [1991].vob\nU2 - The Best Of 1990-2000 DVD - The Fly [1991].vob\nU2 - The Best Of 1990-2000 DVD - Even Better Than The Real Thing [1992].vob\nU2 - The Best Of 1990-2000 DVD - Even Better Than The Real Thing [Dance Mix] [1992].vob\nU2 - The Best Of 1990-2000 DVD - One [1992].vob\nU2 - The Best Of 1990-2000 DVD - Who's Gonna Ride Your Wild Horses [1992].vob\nU2 - U218 Videos - One [Restaurant Version] [1992].vob\nU2 - U218 Videos - One [Buffalo Version] [1992].vob\nU2 - The Best Of 1990-2000 DVD - Lemon [1993].vob\nU2 - The Best Of 1990-2000 DVD - Numb [1993].vob\nU2 - The Best Of 1990-2000 DVD - Numb [Emergency Broadcast Network] [1993].vob\nU2 - The Best Of 1990-2000 DVD - Stay (Faraway, So Close!) [1993].vob\nU2 - The Best Of 1990-2000 DVD - Hold Me, Thrill Me, Kiss Me, Kill Me [1995].vob\nU2 - The Best Of 1990-2000 DVD - Miss Sarajevo [1995].vob\nU2 - The Best Of 1990-2000 DVD - DiscothÃƒÂ¨que [1997].vob\nU2 - The Best Of 1990-2000 DVD - If God Will Send His Angels [1997].vob\nU2 - The Best Of 1990-2000 DVD - Last Night On Earth [1997].vob\nU2 - DiscothÃƒÂ¨que [Steve Osbourne Remix] [1997].vob\nU2 - The Best Of 1990-2000 DVD - Mofo [1997].vob\nU2 - The Best Of 1990-2000 DVD - Please [1997].vob\nU2 - The Best Of 1990-2000 DVD - Staring At The Sun [Miami Version] [1997].vob\nU2 - The Best Of 1990-2000 DVD - Gone [Live From Mexico City] [1998].vob\nU2 - The Best Of 1990-2000 DVD - Staring At The Sun [1997].vob\nU2 - U218 Videos - Sweetest Thing [1998].vob\nU2 - The Best Of 1990-2000 DVD - Beautiful Day [2000].vob\nU2 - The Best Of 1990-2000 DVD - The Ground Beneath Her Feet [2000].vob\nU2 - U218 Videos - Walk On [International Version] [2001].vob\nU2 - The Best Of 1990-2000 DVD - Stuck In A Moment You Can't Get Out Of [International Version] [2001].vob\nU2 - U218 Videos - Elevation [2001].vob\nU2 - U218 Videos - Walk On [U.S. Version] [2001].vob\nU2 - The Best Of 1990-2000 DVD - Electrical Storm [2002].vob\nU2 - The Best Of 1990-2000 DVD - The Hands That Built America (Theme From Gangs Of New York) [Version 2] [2002].vob\nU2 - U218 Videos - Beautiful Day [ÃƒË†ze Version] [2002].vob\nU2 - The Best Of 1990-2000 - Stuck In A Moment You Can't Get Out Of [U.S. Version] [2001].vob\nU2 - The Best Of 1990-2000 - Until The End Of The World [Live From Zoo TV Tour] [2002].vob\nU2 - The Hands That Built America (Theme From Gangs Of New York) [2002].vob\nU2 - U218 Videos - Vertigo [2004].vob\nU2 - U218 Videos - Sometimes You Can't Make It On Your Own [Single Take Version] [2005].vob\n\n\nFormat info for the videos from &quot;U218 Videos&quot;\n\nVideo\nID                               : 224 (0xE0)\nFormat                           : MPEG Video\nFormat version                   : Version 2\nFormat profile                   : Main@Main\nFormat settings, BVOP            : Yes\nFormat settings, Matrix          : Custom\nBit rate mode                    : Variable\nNominal bit rate                 : 9 800 Kbps\nWidth                            : 720 pixels\nHeight                           : 576 pixels\nDisplay aspect ratio             : 4:3\nFrame rate                       : 25.000 fps\nStandard                         : PAL\nColor space                      : YUV\nChroma subsampling               : 4:2:0\nBit depth                        : 8 bits\nScan type                        : Interlaced\nScan order                       : Top Field First\nCompression mode                 : Lossy\n\nAudio\nID                               : 189 (0xBD)-160 (0xA0)\nFormat                           : PCM\nFormat settings, Endianness      : Big\nFormat settings, Sign            : Signed\nMuxing mode                      : DVD-Video\nBit rate mode                    : Constant\nBit rate                         : 1 536 Kbps\nChannel(s)                       : 2 channels\nChannel positions                : Front: L R\nSampling rate                    : 48.0 KHz\nBit depth                        : 16 bits\n\n\nFormat info for &quot;U2 - City Of Blinding Lights [Live In Vancouver] [2005]&quot;\n\nVideo\nID                               : 224 (0xE0)\nFormat                           : MPEG Video\nFormat version                   : Version 2\nFormat profile                   : Main@Main\nFormat settings, BVOP            : Yes\nFormat settings, Matrix          : Custom\nFormat settings, GOP             : M=3, N=15\nDuration                         : 4mn 35s\nBit rate mode                    : Variable\nBit rate                         : 4 060 Kbps\nNominal bit rate                 : 7 200 Kbps\nWidth                            : 720 pixels\nHeight                           : 576 pixels\nDisplay aspect ratio             : 4:3\nFrame rate                       : 25.000 fps\nStandard                         : PAL\nColor space                      : YUV\nChroma subsampling               : 4:2:0\nBit depth                        : 8 bits\nScan type                        : Interlaced\nScan order                       : Top Field First\nCompression mode                 : Lossy\nBits/(Pixel*Frame)               : 0.392\nStream size                      : 133 MiB (88%)\n\nAudio\nID                               : 189 (0xBD)-128 (0x80)\nFormat                           : AC-3\nFormat/Info                      : Audio Coding 3\nMode extension                   : CM (complete main)\nMuxing mode                      : DVD-Video\nDuration                         : 4mn 35s\nBit rate mode                    : Constant\nBit rate                         : 448 Kbps\nChannel(s)                       : 6 channels\nChannel positions                : Front: L C R, Side: L R, LFE\nSampling rate                    : 48.0 KHz\nBit depth                        : 16 bits\nCompression mode                 : Lossy\nDelay relative to video          : -280ms\nStream size                      : 14.7 MiB (10%)\n\n\nFormat info for &quot;U2 - Window In The Skies [2006]&quot;\n\nVideo\nID                               : 224 (0xE0)\nFormat                           : MPEG Video\nFormat version                   : Version 2\nFormat profile                   : Main@Main\nFormat settings, BVOP            : Yes\nFormat settings, Matrix          : Custom\nDuration                         : 4mn 14s\nBit rate mode                    : Variable\nBit rate                         : 3 952 Kbps\nNominal bit rate                 : 7 000 Kbps\nWidth                            : 720 pixels\nHeight                           : 480 pixels\nDisplay aspect ratio             : 4:3\nFrame rate                       : 29.970 fps\nStandard                         : NTSC\nColor space                      : YUV\nChroma subsampling               : 4:2:0\nBit depth                        : 8 bits\nScan type                        : Interlaced\nScan order                       : Bottom Field First\nCompression mode                 : Lossy\nBits/(Pixel*Frame)               : 0.382\nStream size                      : 120 MiB (71%)\n\nAudio\nID                               : 189 (0xBD)-160 (0xA0)\nFormat                           : PCM\nFormat settings, Endianness      : Big\nFormat settings, Sign            : Signed\nMuxing mode                      : DVD-Video\nDuration                         : 4mn 14s\nBit rate mode                    : Constant\nBit rate                         : 1 536 Kbps\nChannel(s)                       : 2 channels\nChannel positions                : Front: L R\nSampling rate                    : 48.0 KHz\nBit depth                        : 16 bits\nStream size                      : 46.5 MiB (27%)\n\n\nMultimedia Analysis by Mediainfo &lt;a href=&quot; http://mediainfo.sourceforge.net&quot; rel=&quot;nofollow&quot; target=&quot;_NEW&quot;&gt; http://mediainfo.sourceforge.net&lt;/a&gt;\n\n\nVisit &lt;a href=&quot; http://thepiratebay.se/user/dehou/&quot; rel=&quot;nofollow&quot; target=&quot;_NEW&quot;&gt; http://thepiratebay.se/user/dehou/&lt;/a&gt; for more parts and videographys","torrent":{"xt":"urn:btih:9fc26e6f9e521498ec81556441979961dce592e2","amp;dn":"Videography+-+U2+-+DVDQ+%5B.vob%5D+-+Part+12","amp;tr":["udp%3A%2F%2Ftracker.openbittorrent.com%3A80","udp%3A%2F%2Fopen.demonii.com%3A1337","udp%3A%2F%2Ftracker.coppersurfer.tk%3A6969","udp%3A%2F%2Fexodus.desync.com%3A6969"],"infoHash":"9fc26e6f9e521498ec81556441979961dce592e2","infoHashBuffer":{"type":"Buffer","data":[159,194,110,111,158,82,20,152,236,129,85,100,65,151,153,97,220,229,146,226]},"announce":[],"urlList":[]}}